<?xml version="1.0" standalone="no"?>
<!DOCTYPE svg PUBLIC "-//W3C//DTD SVG 20010904//EN"
 "http://www.w3.org/TR/2001/REC-SVG-20010904/DTD/svg10.dtd">
<svg version="1.0" xmlns="http://www.w3.org/2000/svg"
 width="410.000000pt" height="487.000000pt" viewBox="0 0 410.000000 487.000000"
 preserveAspectRatio="xMidYMid meet">

<g transform="translate(0.000000,487.000000) scale(0.100000,-0.100000)"
fill="#000000" stroke="none">
<path d="M1978 4753 l-34 -108 -114 -5 -115 -5 93 -65 c105 -74 100 -54 58
-202 -14 -49 -23 -88 -21 -88 3 0 45 30 94 66 l90 65 96 -66 c52 -37 95 -62
95 -57 0 5 -16 53 -35 106 -19 53 -35 99 -35 101 0 2 41 35 91 74 l91 70 -118
3 -117 3 -39 104 c-21 58 -40 106 -42 108 -2 2 -19 -44 -38 -104z"/>
<path d="M1094 4523 l-9 -97 -88 -22 c-49 -12 -91 -24 -93 -27 -3 -2 38 -19
91 -38 l95 -33 0 -96 1 -95 32 35 c18 19 46 52 63 73 l30 37 89 -30 c49 -16
93 -30 98 -30 5 0 -8 24 -29 53 -21 28 -47 64 -57 79 l-20 27 61 73 c33 40 60
74 58 75 -1 1 -18 -2 -37 -7 -19 -5 -62 -16 -96 -24 l-62 -14 -59 79 -60 79
-8 -97z"/>
<path d="M2883 4543 l-62 -81 -93 23 c-51 13 -94 22 -96 20 -2 -2 21 -35 52
-73 31 -38 56 -72 56 -76 0 -3 -22 -37 -48 -74 -27 -37 -52 -73 -56 -80 -4 -7
36 3 91 23 54 19 98 35 98 35 1 0 28 -32 60 -72 l60 -71 5 94 5 93 89 33 c49
18 91 35 94 37 2 3 -16 10 -39 16 -24 6 -67 18 -96 26 l-52 14 -3 98 -3 97
-62 -82z"/>
<path d="M1877 4170 c-896 -80 -1631 -707 -1852 -1581 -14 -54 -25 -100 -25
-104 0 -3 52 -4 116 -3 l116 3 33 120 c92 332 290 650 548 875 725 636 1780
623 2491 -31 237 -218 438 -554 520 -871 l24 -93 126 -3 c69 -1 126 0 126 3 0
4 -11 50 -25 104 -193 764 -774 1340 -1540 1530 -187 46 -467 68 -658 51z"/>
<path d="M1320 3744 c0 -17 6 -28 19 -31 14 -4 27 -36 58 -151 34 -125 43
-147 61 -150 21 -3 27 11 62 148 37 145 39 150 71 150 l29 0 0 -119 c0 -96 -3
-120 -15 -125 -8 -3 -15 -17 -15 -31 l0 -25 165 0 165 0 0 30 c0 20 -5 30 -15
30 -12 0 -15 18 -15 103 l1 102 52 -130 c43 -106 57 -131 75 -133 22 -3 22 -2
22 147 0 144 1 151 20 151 17 0 20 -7 20 -40 0 -33 3 -40 20 -40 17 0 20 7 20
40 0 33 3 40 20 40 19 0 20 -7 20 -120 0 -100 -2 -120 -15 -120 -10 0 -15 -10
-15 -30 0 -30 1 -30 55 -30 53 0 55 1 55 26 0 17 -6 28 -20 31 -19 5 -20 14
-20 124 l0 119 25 0 c23 0 25 -4 25 -40 0 -33 3 -40 20 -40 18 0 20 7 20 70
l0 70 -160 0 -160 0 0 -30 c0 -23 4 -30 20 -30 19 0 20 -7 20 -92 0 -50 -3
-88 -7 -84 -4 3 -27 57 -52 119 l-46 112 -207 3 -208 2 0 -29 c0 -16 5 -31 11
-33 8 -3 4 -32 -12 -96 -13 -51 -26 -92 -29 -92 -3 0 -16 41 -29 92 -18 66
-21 93 -13 96 7 2 12 17 12 33 0 29 -1 29 -55 29 -53 0 -55 -1 -55 -26z m450
-64 c0 -23 4 -30 20 -30 16 0 20 7 20 30 0 23 4 30 20 30 19 0 20 -7 20 -120
0 -113 -1 -120 -20 -120 -16 0 -20 7 -20 30 0 23 -4 30 -20 30 -16 0 -20 -7
-20 -30 0 -29 -1 -30 -50 -30 l-50 0 0 50 0 50 45 0 c41 0 45 2 45 25 0 23 -4
25 -45 25 l-45 0 0 45 0 45 50 0 c49 0 50 -1 50 -30z"/>
<path d="M2340 3746 c0 -13 5 -26 11 -28 19 -6 -41 -240 -63 -246 -12 -3 -18
-14 -18 -33 0 -28 1 -29 55 -29 52 0 55 1 55 25 0 13 -6 28 -14 32 -9 5 -12
18 -9 36 5 24 9 27 48 27 38 0 44 -3 50 -27 4 -19 2 -29 -9 -35 -9 -5 -16 -20
-16 -33 0 -24 2 -25 75 -25 52 0 75 4 75 12 0 9 3 9 12 0 21 -21 73 -14 99 14
19 20 24 36 24 79 0 62 -18 88 -81 115 -23 10 -45 23 -49 29 -9 16 3 48 22 55
22 9 63 -20 63 -45 0 -14 5 -19 18 -17 13 2 18 15 20 59 l3 56 -64 1 c-77 1
-97 -14 -104 -80 -5 -58 13 -88 72 -119 39 -20 51 -31 53 -53 4 -29 -12 -56
-34 -56 -21 0 -54 41 -54 67 0 16 -6 23 -20 23 -17 0 -20 -7 -20 -40 0 -60
-26 -53 -44 13 -39 134 -49 191 -38 195 7 2 12 15 12 28 0 23 -3 24 -65 24
-62 0 -65 -1 -65 -24z m89 -143 c1 -18 -5 -23 -24 -23 -29 0 -29 1 -13 72 l12
53 12 -40 c7 -22 13 -50 13 -62z"/>
<path d="M1240 3171 l0 -110 66 -3 66 -3 98 -270 98 -270 -63 -65 c-181 -189
-255 -413 -242 -742 6 -168 28 -262 87 -387 145 -302 391 -461 715 -461 273 0
500 108 641 306 52 73 100 173 88 184 -5 4 -46 37 -90 73 l-82 66 -50 -82
c-147 -239 -386 -352 -617 -292 -90 24 -153 62 -235 145 -87 87 -140 178 -171
297 -29 105 -31 316 -5 418 32 125 116 283 130 245 3 -8 59 -163 125 -345
l119 -330 112 0 112 0 137 377 c75 208 140 380 144 384 17 17 142 -140 161
-203 7 -22 12 -23 112 -23 l104 0 0 285 0 286 -102 -3 -103 -3 -3 -72 c-2 -40
-6 -73 -10 -73 -4 0 -22 13 -40 28 l-33 27 92 253 92 252 53 0 54 0 0 110 0
110 -245 0 -245 0 0 -110 0 -110 50 0 c28 0 50 -2 50 -4 0 -3 -102 -299 -134
-392 -3 -8 -18 -9 -53 -2 -78 14 -272 11 -348 -7 -37 -8 -69 -14 -71 -12 -5 5
-144 400 -144 409 0 4 23 8 50 8 l51 0 -3 108 -3 107 -257 3 -258 2 0 -109z
m946 -743 c7 -7 -131 -425 -146 -441 -8 -9 -153 399 -147 416 7 21 91 36 189
34 53 -1 100 -5 104 -9z"/>
<path d="M434 2386 c-34 -34 -35 -37 -32 -103 l3 -68 36 -3 37 -3 3 91 c3 67
8 93 19 100 21 13 26 12 44 -6 18 -18 22 -128 6 -183 -5 -18 -40 -79 -77 -134
l-68 -101 -4 -118 -3 -118 121 0 121 0 0 100 0 100 -40 0 -39 0 -3 -92 -3 -93
-35 0 c-35 0 -35 0 -38 50 -7 105 5 149 70 248 79 120 88 142 88 228 0 67 -2
73 -34 105 -30 30 -40 34 -86 34 -46 0 -56 -4 -86 -34z"/>
<path d="M734 2386 l-35 -35 3 -281 3 -282 30 -24 c42 -33 87 -40 140 -20 74
29 76 42 73 352 l-3 266 -33 29 c-27 25 -41 29 -88 29 -50 0 -59 -3 -90 -34z
m114 12 c9 -9 12 -95 12 -325 l0 -313 -27 -6 c-51 -13 -53 1 -53 327 0 257 2
300 16 313 19 19 36 20 52 4z"/>
<path d="M3175 2410 c-3 -5 1 -10 9 -10 14 0 16 -36 16 -316 0 -290 -1 -318
-17 -330 -16 -11 -6 -13 65 -14 48 0 82 4 82 10 0 6 -7 10 -15 10 -13 0 -15
43 -15 330 l0 330 -59 0 c-33 0 -63 -4 -66 -10z"/>
<path d="M3438 2398 c-20 -11 -41 -32 -47 -45 -14 -31 -14 -225 0 -257 16 -34
57 -49 123 -44 l56 3 0 -142 c0 -135 -1 -143 -21 -154 -16 -8 -28 -8 -45 0
-23 10 -24 16 -24 96 l0 85 -50 0 -50 0 0 -63 c0 -40 5 -70 16 -85 54 -77 233
-68 264 14 14 36 13 517 -1 547 -28 62 -149 87 -221 45z m116 -4 c14 -5 16
-29 16 -160 0 -151 -1 -155 -22 -163 -13 -5 -32 -5 -43 -1 -19 7 -20 18 -23
156 -1 81 0 154 2 161 6 14 43 17 70 7z"/>
<path d="M61 2219 c-55 -51 -68 -161 -29 -239 40 -79 101 -86 152 -17 31 42
35 160 7 215 -33 65 -86 81 -130 41z"/>
<path d="M3931 2219 c-55 -51 -68 -161 -28 -239 39 -79 100 -86 151 -17 31 42
35 160 7 215 -33 65 -86 81 -130 41z"/>
<path d="M10 1652 c0 -62 99 -348 167 -487 404 -813 1293 -1277 2185 -1140
819 125 1487 725 1704 1530 13 50 24 96 24 103 0 10 -29 12 -127 10 -125 -3
-126 -3 -134 -28 -64 -215 -128 -364 -218 -510 -255 -410 -652 -700 -1121
-820 -158 -40 -269 -53 -455 -53 -199 1 -329 19 -510 71 -588 170 -1052 621
-1241 1207 l-42 130 -116 3 c-107 2 -116 1 -116 -16z"/>
<path d="M1569 767 c-19 -12 -44 -42 -57 -67 -32 -61 -28 -177 8 -235 70 -113
232 -96 280 30 10 26 9 32 -11 48 -23 18 -23 18 -42 -23 -32 -67 -92 -87 -142
-48 -95 75 -59 258 51 258 35 0 80 -30 89 -60 4 -13 15 -20 31 -20 23 0 24 3
24 70 0 68 -1 70 -25 70 -16 0 -25 -6 -25 -15 0 -14 -3 -14 -30 0 -43 22 -111
19 -151 -8z"/>
<path d="M1840 760 c0 -20 5 -30 15 -30 13 0 15 -22 15 -140 0 -118 -2 -140
-15 -140 -10 0 -15 -10 -15 -30 l0 -30 60 0 60 0 0 30 c0 20 -5 30 -15 30 -13
0 -15 22 -15 140 0 118 2 140 15 140 10 0 15 10 15 30 l0 30 -60 0 -60 0 0
-30z"/>
<path d="M1980 710 c0 -73 2 -80 19 -80 17 0 20 8 23 48 3 43 5 47 31 50 l27
3 0 -140 c0 -134 -1 -141 -20 -141 -16 0 -20 -7 -20 -30 l0 -30 70 0 70 0 0
30 c0 23 -4 30 -20 30 -19 0 -20 7 -20 140 l0 140 25 0 c23 0 25 -3 25 -50 0
-47 2 -50 25 -50 23 0 25 3 25 50 0 78 25 68 83 -33 41 -72 47 -90 47 -140 0
-55 -1 -57 -26 -57 -22 0 -25 -4 -22 -27 3 -27 5 -28 76 -31 l72 -3 0 30 c0
23 -5 30 -22 33 -20 3 -23 10 -26 56 -3 47 2 63 43 137 33 62 51 85 66 85 14
0 19 7 19 30 l0 30 -65 0 -65 0 0 -30 c0 -20 5 -30 15 -30 20 0 19 -6 -11 -58
l-26 -44 -29 48 c-22 39 -25 50 -14 52 9 2 15 15 15 33 l0 29 -195 0 -195 0 0
-80z"/>
</g>
</svg>
